<svg xmlns="http://www.w3.org/2000/svg" version="1.1" xmlns:xlink="http://www.w3.org/1999/xlink" xmlns:svgjs="http://svgjs.com/svgjs" width="512" height="512"><svg id="SvgjsSvg1000" data-name="Layer 1" xmlns="http://www.w3.org/2000/svg" version="1.1" viewBox="0 0 512 512">
  <defs>
    <style>
      .cls-1 {
        fill: #c3f5f6;
        stroke: #c3f5f6;
        stroke-miterlimit: 10;
        stroke-width: 8.1px;
      }

      .cls-2 {
        fill: #4d448b;
        stroke-width: 0px;
      }
    </style>
  </defs>
  <rect class="cls-2" width="512" height="512"></rect>
  <path class="cls-1" d="M158.7,84.6c0-4.9,4.1-8.9,9-8.9h101.9c49.8,0,95.3,20.3,128,53,32.8,32.7,53.3,77.8,53.3,127.4s-18.1,89.5-47.7,121.6c-29.9,32.5-71.3,54.1-117.9,58.1-5,.4-9.3-3.3-9.7-8.1-.4-4.9,3.3-9.3,8.1-9.7,41.8-3.7,79.2-23.1,106.1-52.3,26.7-29,43-67.5,43-109.6s-18.4-85.3-48-114.8c-29.6-29.5-70.5-47.8-115.3-47.8h-93v68.8c14.1-1.1,28.4-.3,41.3,3.8,16.1,5.1,30,15,38.2,32.5,8.2,3.4,17.7,6.3,28,8.5,11.7,2.6,25.2,4.6,40.1,5.7h0c4,.3,7.4,3.3,8.1,7.4,3.8,20.8,4.4,38.8,2,53.6-2.6,15.8-8.6,28.4-18.3,37.7-11.9,11.5-29.6,15.4-47.6,19.2-24.3,5.2-49.5,10.5-50.9,39.8v66h-9c-5,0-9-4.1-9-8.9v-58.1c1.5-42.9,33.8-49.8,65.3-56.6,15.4-3.3,30.6-6.5,38.8-14.5,6.7-6.5,11.1-15.8,13.1-27.7,1.8-11.3,1.6-25-.8-40.9-12.8-1.3-24.5-3-35.5-5.5-13-2.8-24.4-6.5-34.6-11-2.1-1-3.9-2.7-4.7-4.8h0c-5.8-14-16.1-21.6-28.4-25.6-11-3.4-23.6-4-36-2.9v114.9c0,.9-.2,1.8-.4,2.5-4.2,16.1-10.2,26.5-17.3,32.2-6.5,5.3-13.5,6.9-20.7,5.8-6.5-1.1-12.8-4.5-18.5-9.4-11.4-10.1-21.6-27.7-26.5-46.2-1.1-4.2-6.5-7.8-11.7-11.4-14.5-9.9-29-20-15.3-48,6-12.1,17.6-24,33-33.8,14.3-9,31.8-16.4,51.2-20.5,2.6-.6,5.5-1.2,8.1-1.6v-80h.3ZM157.9,292.1v-110.4c-1.6.3-2.9.6-4.4.9-17.2,3.7-32.5,10.1-45,17.9-12.5,7.9-21.6,17.3-26.3,26.5-6.8,14.1,1.3,19.6,9.3,25.2,8.1,5.6,15.9,11,18.8,21.6,3.9,15,11.8,29.2,20.8,37,3.3,2.8,6.5,4.7,9.3,5.2,2.1.3,4.4-.3,6.5-1.9,4.1-3.3,7.9-10.4,10.9-21.9h0Z"></path>
</svg><style>@media (prefers-color-scheme: light) { :root { filter: none; } }
</style></svg>